<svg width="400" height="888" viewBox="0 0 400 888" fill="none" xmlns="http://www.w3.org/2000/svg">
<g clip-path="url(#clip0_213_72284)">
<rect width="400" height="888" fill="#FEF7E1"/>
<path opacity="0.17" d="M395.476 -1.01694C398.205 -1.00999 400.934 -1.00103 403.663 -0.991546V7.15689C400.943 7.14753 398.223 7.13826 395.503 7.1315C395.535 16.7015 395.567 26.2717 395.599 35.8415C398.287 35.8777 400.975 35.9177 403.663 35.9577V44.0963C400.984 44.0564 398.305 44.0163 395.626 43.9801C395.66 54.0159 395.694 64.052 395.728 74.0876C398.373 74.0179 401.018 73.948 403.663 73.8786V82.0299C401.027 82.0997 398.391 82.1699 395.755 82.2379C395.798 95.1588 395.842 108.08 395.886 121.001C398.478 120.946 401.071 120.889 403.663 120.835V128.984C401.08 129.038 398.497 129.092 395.914 129.146C395.946 138.511 395.977 147.877 396.009 157.242L403.663 157.136V165.293C401.121 165.328 398.579 165.363 396.037 165.398C396.067 174.339 396.097 183.28 396.127 192.22C398.639 192.254 401.151 192.293 403.663 192.33V200.468C401.16 200.431 398.657 200.393 396.154 200.359C396.179 207.633 396.203 214.907 396.228 222.18C398.706 222.126 401.185 222.069 403.663 222.014V230.161C401.194 230.216 398.724 230.272 396.255 230.327C396.287 239.728 396.318 249.129 396.35 258.53C398.787 258.496 401.225 258.462 403.663 258.428V266.585C401.235 266.618 398.806 266.652 396.378 266.685C396.419 278.78 396.459 290.874 396.5 302.968C398.888 302.902 401.275 302.831 403.663 302.762V310.914C401.284 310.982 398.906 311.052 396.527 311.118C396.556 319.643 396.585 328.169 396.613 336.695C398.963 336.709 401.313 336.727 403.663 336.743V344.89C401.322 344.874 398.981 344.857 396.641 344.842C396.673 354.53 396.705 364.218 396.737 373.905C399.046 373.948 401.355 373.996 403.663 374.043V382.178C401.364 382.132 399.064 382.087 396.765 382.044C396.797 391.649 396.83 401.254 396.862 410.859C399.129 410.793 401.396 410.722 403.663 410.654V418.807C401.405 418.875 399.148 418.946 396.89 419.011C396.933 431.992 396.977 444.972 397.021 457.953C398.881 457.913 400.743 457.874 402.604 457.834C402.957 457.826 403.31 457.818 403.663 457.81V465.957C401.458 466.004 399.253 466.054 397.048 466.101C397.08 475.54 397.112 484.979 397.144 494.418L403.663 494.328V502.485C401.499 502.515 399.335 502.545 397.171 502.575C397.202 511.811 397.233 521.048 397.265 530.285C399.397 530.325 401.53 530.367 403.663 530.41V538.549C401.54 538.507 399.416 538.465 397.293 538.424C397.317 545.316 397.341 552.209 397.367 559.1C399.466 559.053 401.564 559.002 403.663 558.954V567.1C401.575 567.148 399.487 567.198 397.398 567.246C397.435 576.732 397.473 586.219 397.511 595.705C399.562 595.677 401.612 595.648 403.663 595.62V603.775C401.623 603.803 399.583 603.832 397.543 603.86C397.591 615.793 397.637 627.727 397.679 639.66C399.674 639.595 401.668 639.528 403.663 639.461V647.612C401.678 647.679 399.693 647.745 397.708 647.81C397.75 660.224 397.783 672.639 397.811 685.053C399.761 685.059 401.712 685.067 403.663 685.074V693.221C401.718 693.215 399.774 693.206 397.829 693.201C397.844 701.454 397.856 709.707 397.861 717.96C397.862 719.285 397.859 720.611 397.859 721.936C399.794 721.963 401.729 721.994 403.663 722.023V730.158C401.728 730.129 399.792 730.101 397.856 730.074C397.842 740.081 397.798 750.09 397.708 760.098C399.693 760.046 401.678 759.994 403.663 759.942V768.091C401.65 768.145 399.638 768.2 397.625 768.253C397.475 781.186 397.241 794.118 396.887 807.043C399.146 806.995 401.404 806.946 403.663 806.898V815.048C401.325 815.097 398.987 815.146 396.648 815.195C396.354 824.572 395.991 833.945 395.548 843.311L403.663 843.199V851.356C400.821 851.395 397.979 851.435 395.138 851.474C394.669 860.405 394.123 869.33 393.487 878.246C396.879 878.29 400.271 878.339 403.663 878.389V880.263H63.2178C75.9307 880.056 88.6493 879.85 101.374 879.65C100.726 871.618 100.108 863.582 99.5205 855.542C86.7713 855.717 74.0217 855.892 61.2725 856.068C61.7372 864.135 62.2242 872.2 62.7314 880.263H54.5635C54.0577 872.238 53.5731 864.21 53.1094 856.18C45.1317 856.29 37.1535 856.4 29.1758 856.509C29.052 864.428 28.9098 872.346 28.7441 880.263H20.583C20.7483 872.384 20.8936 864.503 21.0176 856.622C15.2329 856.701 9.44777 856.78 3.66309 856.86V848.705C9.48813 848.624 15.3136 848.545 21.1387 848.465C21.2617 839.658 21.3597 830.85 21.4346 822.043C15.5109 822.137 9.58673 822.229 3.66309 822.323V814.165C9.60792 814.071 15.5532 813.979 21.498 813.883C21.5813 801.771 21.6184 789.658 21.6182 777.545C15.6333 777.692 9.64797 777.838 3.66309 777.985V769.829C9.64599 769.681 15.6294 769.535 21.6123 769.387C21.5942 757.164 21.5356 744.941 21.4414 732.718C15.5154 732.814 9.58903 732.909 3.66309 733.004V724.854C9.56588 724.76 15.4698 724.666 21.374 724.57C21.348 721.677 21.3229 718.783 21.293 715.889C21.2292 709.769 21.1551 703.649 21.0752 697.529C15.2713 697.639 9.46696 697.747 3.66309 697.856V689.598C9.42921 689.491 15.1957 689.382 20.9619 689.276C20.8107 678.63 20.6374 667.983 20.4424 657.339C14.8494 657.476 9.25603 657.613 3.66309 657.751V649.59C9.20494 649.453 14.7472 649.317 20.2891 649.18C20.0309 635.808 19.7403 622.436 19.4238 609.066C14.1704 609.138 8.91652 609.211 3.66309 609.283V601.127C8.85141 601.055 14.0402 600.984 19.2285 600.913C19.014 592.148 18.788 583.384 18.5527 574.62C13.5897 574.704 8.62615 574.785 3.66309 574.868V566.71C8.55258 566.628 13.4425 566.548 18.332 566.466C18.0913 557.715 17.8398 548.964 17.582 540.214C12.9425 540.29 8.30257 540.363 3.66309 540.439V532.289C8.22218 532.214 12.7817 532.142 17.3408 532.067C17.0982 523.982 16.8479 515.897 16.5938 507.812L3.66309 507.99V499.835C7.88657 499.777 12.1105 499.719 16.334 499.661C16.053 490.841 15.7678 482.02 15.4766 473.201C11.5389 473.265 7.60075 473.326 3.66309 473.389V465.231C7.51124 465.169 11.3599 465.109 15.208 465.047C14.8027 452.881 14.3874 440.716 13.9707 428.551C10.535 428.636 7.09881 428.72 3.66309 428.804V420.646C7.00538 420.564 10.3481 420.481 13.6904 420.399C13.2724 408.24 12.8559 396.081 12.4355 383.923C9.51155 383.97 6.58708 384.016 3.66309 384.064V375.915C6.49334 375.869 9.32405 375.824 12.1543 375.778C11.8783 367.787 11.6017 359.796 11.3281 351.805C11.2927 350.77 11.2561 349.735 11.2207 348.7C8.70164 348.747 6.18214 348.794 3.66309 348.841V340.592C6.08808 340.548 8.51348 340.503 10.9385 340.459C10.7131 333.874 10.4872 327.29 10.2617 320.706C8.06233 320.76 5.86248 320.813 3.66309 320.867V312.71C5.76938 312.658 7.87612 312.606 9.98242 312.554C9.51983 299.044 9.05746 285.534 8.59473 272.024C6.95099 272.047 5.30682 272.069 3.66309 272.091V263.936C5.21372 263.915 6.76479 263.894 8.31543 263.873C8.01657 255.148 7.71784 246.422 7.41895 237.697C6.16714 237.718 4.91489 237.737 3.66309 237.757V229.598C4.82179 229.579 5.98095 229.562 7.13965 229.543C6.83972 220.788 6.53921 212.032 6.23926 203.277C5.38068 203.291 4.52166 203.303 3.66309 203.317V195.167C4.42887 195.155 5.19513 195.144 5.96094 195.132C5.68281 187.013 5.40411 178.895 5.12598 170.777C4.63849 170.784 4.15057 170.79 3.66309 170.797V162.641C4.0578 162.636 4.45295 162.631 4.84766 162.626C4.54651 153.836 4.24547 145.046 3.94434 136.257C3.85073 136.258 3.75669 136.259 3.66309 136.26V128.104H3.66504C3.66438 128.085 3.66374 128.066 3.66309 128.047V-7.73666H7.1748C7.3024 -4.00389 7.42968 -0.27108 7.55762 3.46158C17.4643 3.27713 27.3716 3.09461 37.2783 2.9147L37.2236 -2.42612C37.1506 -9.34874 45.3109 -9.32728 45.3848 -2.42612C45.4029 -0.695523 45.4204 1.03566 45.4385 2.76627C76.9852 2.19793 108.533 1.65836 140.08 1.1608C140.079 0.777784 140.078 0.394398 140.077 0.011384V0.000641823C140.053 -6.92225 148.214 -6.90078 148.238 0.000641823C148.239 0.343947 148.24 0.68761 148.241 1.03092C162.889 0.803447 177.538 0.588835 192.186 0.382478C192.153 -1.11532 192.122 -2.61389 192.089 -4.11166H192.072C191.918 -11.034 200.078 -11.0018 200.233 -4.11166C200.266 -2.65229 200.296 -1.19213 200.328 0.267243C201.091 0.256723 201.854 0.245473 202.616 0.235017C230.284 -0.144172 257.955 -0.457901 285.626 -0.680999L285.553 -7.73666H293.716C293.74 -5.40594 293.764 -3.07521 293.788 -0.744475C324.963 -0.975087 356.139 -1.08642 387.314 -1.03549C387.307 -3.26921 387.299 -5.50294 387.292 -7.73666H395.453C395.461 -5.49675 395.468 -3.25684 395.476 -1.01694ZM107.683 855.429C108.268 863.464 108.884 871.496 109.53 879.523C119.9 879.363 130.275 879.21 140.654 879.061C140.995 871.033 141.28 863 141.516 854.964C130.238 855.119 118.96 855.274 107.683 855.429ZM149.681 854.851C149.445 862.886 149.161 870.919 148.82 878.946C159.268 878.801 169.722 878.661 180.182 878.534C187.885 878.44 195.588 878.353 203.292 878.272C203.277 870.22 203.258 862.167 203.232 854.115C185.382 854.361 167.531 854.605 149.681 854.851ZM211.391 854.003C211.416 862.065 211.435 870.128 211.451 878.19C226.117 878.046 240.783 877.928 255.45 877.843C255.319 869.697 255.188 861.549 255.057 853.402C240.501 853.602 225.946 853.802 211.391 854.003ZM357.063 851.998C357.736 860.634 358.443 869.267 359.188 877.895C367.904 877.961 376.62 878.045 385.335 878.147C385.965 869.301 386.505 860.447 386.971 851.587C377.002 851.723 367.032 851.861 357.063 851.998ZM310.396 852.64C310.905 860.996 311.438 869.35 311.995 877.701C325.003 877.712 338.012 877.756 351.02 877.839C350.278 869.268 349.574 860.691 348.904 852.11C336.068 852.286 323.232 852.464 310.396 852.64ZM263.216 853.29C263.347 861.46 263.479 869.631 263.61 877.801C277.016 877.736 290.423 877.699 303.829 877.696C303.274 869.384 302.742 861.069 302.233 852.753C289.228 852.931 276.222 853.111 263.216 853.29ZM29.5898 821.912C29.5159 830.726 29.4182 839.539 29.2959 848.352C37.0793 848.245 44.8631 848.138 52.6465 848.031C52.1522 839.21 51.6823 830.387 51.2354 821.562C44.0203 821.68 36.8048 821.796 29.5898 821.912ZM59.4014 821.428C59.8475 830.26 60.3182 839.091 60.8115 847.919C73.5194 847.744 86.2277 847.569 98.9355 847.394C98.3103 838.535 97.7212 829.67 97.1641 820.802C84.5767 821.014 71.9888 821.222 59.4014 821.428ZM105.33 820.664C105.886 829.54 106.475 838.413 107.1 847.282C118.646 847.123 130.192 846.964 141.738 846.805C141.965 837.883 142.137 828.957 142.265 820.03C129.953 820.243 117.642 820.455 105.33 820.664ZM184.702 819.286C173.279 819.489 161.854 819.689 150.431 819.888C150.303 828.825 150.131 837.761 149.904 846.693C167.671 846.448 185.438 846.205 203.204 845.96C203.172 836.958 203.135 827.956 203.093 818.955C196.963 819.065 190.832 819.177 184.702 819.286ZM211.249 818.808C211.292 827.821 211.329 836.834 211.361 845.847C211.466 845.846 211.57 845.845 211.675 845.843C226.092 845.645 240.509 845.446 254.926 845.248C254.78 836.169 254.633 827.09 254.487 818.011C240.075 818.281 225.662 818.547 211.249 818.808ZM262.646 817.859C262.792 826.951 262.939 836.043 263.085 845.135C275.97 844.958 288.856 844.78 301.741 844.602C301.198 835.452 300.682 826.298 300.191 817.142C287.676 817.385 275.161 817.624 262.646 817.859ZM308.356 816.983C308.847 826.154 309.361 835.324 309.904 844.49C322.696 844.314 335.488 844.138 348.279 843.962C347.583 834.724 346.926 825.48 346.307 816.232C333.657 816.487 321.006 816.736 308.356 816.983ZM354.468 816.067C355.087 825.332 355.743 834.593 356.439 843.849C366.753 843.707 377.067 843.566 387.38 843.424C387.823 834.077 388.184 824.723 388.479 815.366C377.142 815.603 365.805 815.837 354.468 816.067ZM29.7715 777.344C29.7727 789.481 29.7335 801.617 29.6514 813.753C36.7101 813.639 43.7694 813.525 50.8281 813.41C50.2308 801.233 49.6792 789.051 49.1641 776.868C42.7 777.027 36.2355 777.186 29.7715 777.344ZM57.3301 776.668C57.8453 788.874 58.4002 801.078 58.9971 813.277C71.551 813.071 84.1053 812.863 96.6592 812.652C95.9146 800.358 95.2327 788.057 94.6055 775.752C82.1805 776.056 69.755 776.363 57.3301 776.668ZM102.778 775.551C103.405 787.878 104.084 800.2 104.828 812.514C117.342 812.303 129.856 812.088 142.37 811.872C142.513 799.44 142.577 787.006 142.598 774.573C129.325 774.899 116.051 775.226 102.778 775.551ZM150.762 774.373C150.743 786.824 150.679 799.279 150.536 811.731C168.042 811.426 185.549 811.116 203.055 810.8C202.991 798.231 202.918 785.66 202.838 773.091C185.479 773.518 168.12 773.946 150.762 774.373ZM210.993 772.889C211.073 785.477 211.146 798.066 211.21 810.654C211.577 810.647 211.944 810.641 212.312 810.634C226.326 810.381 240.342 810.122 254.356 809.86C254.153 797.185 253.949 784.51 253.745 771.836C239.495 772.188 225.244 772.538 210.993 772.889ZM261.902 771.635C262.106 784.326 262.311 797.017 262.515 809.708C274.93 809.475 287.346 809.238 299.761 808.998C299.098 796.251 298.487 783.499 297.918 770.744C285.913 771.041 273.908 771.339 261.902 771.635ZM306.084 770.541C306.653 783.311 307.265 796.077 307.927 808.84C320.541 808.594 333.156 808.346 345.771 808.092C344.942 795.273 344.181 782.445 343.485 769.611C331.018 769.922 318.551 770.231 306.084 770.541ZM383.114 768.623C372.629 768.885 362.142 769.145 351.656 769.407C352.351 782.254 353.106 795.095 353.934 807.928C365.529 807.694 377.124 807.454 388.719 807.213C389.073 794.302 389.308 781.382 389.458 768.461C387.344 768.514 385.229 768.57 383.114 768.623ZM29.5938 732.586C29.6876 744.786 29.7457 756.986 29.7646 769.186C36.117 769.03 42.4699 768.872 48.8223 768.716C48.3264 756.578 47.8703 744.438 47.4473 732.297C41.4963 732.394 35.5447 732.489 29.5938 732.586ZM55.6182 732.164C56.0412 744.283 56.4989 756.4 56.9932 768.514C69.3947 768.209 81.7968 767.902 94.1982 767.596C93.61 755.59 93.0739 743.579 92.583 731.566C80.2615 731.762 67.9395 731.962 55.6182 732.164ZM142.539 730.811C128.613 731.009 114.687 731.217 100.761 731.436C101.251 743.426 101.785 755.413 102.371 767.395C115.783 767.064 129.195 766.734 142.606 766.403C142.608 757.482 142.592 748.561 142.566 739.643C142.558 736.699 142.548 733.755 142.539 730.811ZM202.539 730.058C185.267 730.24 167.994 730.457 150.722 730.695C150.744 741.055 150.762 751.416 150.769 761.776C150.77 763.251 150.767 764.726 150.767 766.201C164.663 765.858 178.559 765.517 192.455 765.174C195.898 765.089 199.342 765.006 202.785 764.922C202.709 753.433 202.629 741.943 202.543 730.454C202.542 730.322 202.54 730.19 202.539 730.058ZM253.066 729.634C238.942 729.72 224.818 729.837 210.694 729.976C210.751 737.542 210.807 745.108 210.859 752.674C210.887 756.69 210.912 760.707 210.938 764.723C225.163 764.376 239.389 764.029 253.614 763.685C253.432 752.335 253.249 740.984 253.066 729.634ZM296.227 729.476C284.56 729.49 272.893 729.53 261.227 729.591C261.408 740.89 261.59 752.189 261.771 763.488C273.7 763.2 285.63 762.912 297.559 762.622C297.082 751.576 296.641 740.527 296.227 729.476ZM304.401 729.469C304.813 740.456 305.255 751.441 305.729 762.423C318.171 762.119 330.613 761.811 343.055 761.501C342.499 750.856 341.986 740.206 341.511 729.554C329.141 729.494 316.771 729.467 304.401 729.469ZM349.693 729.602C350.165 740.17 350.674 750.736 351.224 761.297C363.997 760.975 376.77 760.647 389.543 760.313C389.634 750.198 389.676 740.082 389.691 729.966C377.962 729.82 366.231 729.71 354.502 729.631C352.899 729.62 351.296 729.612 349.693 729.602ZM29.2285 697.377C29.3458 706.397 29.4464 715.418 29.5273 724.438C35.4068 724.342 41.2876 724.246 47.1689 724.15C46.8652 715.12 46.5779 706.088 46.3086 697.056C40.6154 697.163 34.9217 697.269 29.2285 697.377ZM54.4775 696.903C54.7469 705.942 55.0345 714.98 55.3389 724.017C67.6403 723.816 79.9469 723.615 92.2588 723.42C91.904 714.356 91.5711 705.292 91.2637 696.226C79.0016 696.447 66.7394 696.674 54.4775 696.903ZM142.433 695.345C128.101 695.58 113.77 695.825 99.4385 696.08C99.7467 705.151 100.079 714.222 100.435 723.29C114.453 723.069 128.479 722.859 142.515 722.66C142.487 713.555 142.461 704.45 142.433 695.345ZM202.256 694.441C185.046 694.675 167.836 694.933 150.626 695.21C150.656 704.321 150.682 713.432 150.704 722.544C160.481 722.409 170.263 722.28 180.051 722.161C187.526 722.07 195.001 721.986 202.477 721.908C202.406 712.753 202.332 703.597 202.256 694.441ZM389.651 693.179C375.838 693.154 362.025 693.161 348.213 693.195C348.562 702.617 348.936 712.038 349.339 721.456C362.793 721.538 376.248 721.66 389.701 721.828C389.702 713.159 389.685 704.492 389.66 695.827C389.658 694.945 389.654 694.062 389.651 693.179ZM252.492 693.835C238.465 693.981 224.438 694.148 210.411 694.333C210.488 703.497 210.561 712.661 210.632 721.825C224.732 721.686 238.834 721.57 252.936 721.486C252.788 712.269 252.64 703.052 252.492 693.835ZM294.978 693.458C283.536 693.54 272.093 693.64 260.651 693.753C260.8 702.982 260.947 712.212 261.096 721.441C272.705 721.381 284.316 721.343 295.926 721.33C295.8 717.842 295.675 714.354 295.555 710.866C295.354 705.062 295.163 699.259 294.978 693.458ZM340.034 693.219C327.74 693.259 315.445 693.322 303.15 693.402C303.448 702.71 303.763 712.017 304.1 721.323C316.451 721.321 328.803 721.349 341.154 721.41C340.985 717.452 340.821 713.493 340.661 709.534C340.442 704.096 340.235 698.658 340.034 693.219ZM28.5967 657.138C28.7925 667.8 28.9661 678.463 29.1172 689.127C34.7674 689.023 40.4181 688.921 46.0684 688.819C45.7612 678.124 45.4767 667.427 45.2119 656.73C39.6737 656.866 34.1349 657.002 28.5967 657.138ZM53.3818 656.53C53.6462 667.245 53.9309 677.96 54.2383 688.674C66.4897 688.455 78.7417 688.239 90.9932 688.03C90.6428 677.231 90.3229 666.431 90.0293 655.63C77.8136 655.929 65.5975 656.23 53.3818 656.53ZM98.1992 655.429C98.4941 666.251 98.8152 677.072 99.167 687.891C113.58 687.648 127.994 687.414 142.407 687.187C142.373 676.24 142.337 665.292 142.302 654.344C127.601 654.706 112.9 655.068 98.1992 655.429ZM150.476 654.142C150.519 665.114 150.561 676.086 150.599 687.058C167.795 686.792 184.992 686.54 202.188 686.304C202.093 675.162 201.992 664.019 201.889 652.876C184.751 653.299 167.613 653.721 150.476 654.142ZM210.045 652.674C210.149 663.848 210.247 675.022 210.343 686.195C224.348 686.009 238.355 685.84 252.361 685.692C252.179 674.342 251.996 662.991 251.813 651.641C237.891 651.987 223.968 652.331 210.045 652.674ZM259.971 651.438C260.154 662.828 260.337 674.218 260.521 685.608C271.92 685.494 283.321 685.394 294.721 685.31C294.364 673.735 294.034 662.166 293.729 650.599C282.477 650.88 271.224 651.159 259.971 651.438ZM334.916 649.572C323.911 649.848 312.905 650.121 301.899 650.395C302.204 662.016 302.535 673.636 302.894 685.255C315.175 685.173 327.457 685.111 339.738 685.071C339.318 673.209 338.938 661.344 338.592 649.478C337.367 649.509 336.141 649.541 334.916 649.572ZM389.515 648.071C375.264 648.514 361.012 648.903 346.762 649.27C347.111 661.198 347.493 673.124 347.916 685.047C361.82 685.012 375.723 685.005 389.627 685.031C389.59 672.711 389.553 660.391 389.515 648.071ZM27.5752 608.954C27.8926 622.294 28.1831 635.636 28.4414 648.979C33.965 648.843 39.4891 648.706 45.0127 648.57C44.6964 635.29 44.4101 622.008 44.1484 608.725C38.6242 608.801 33.0995 608.878 27.5752 608.954ZM52.3242 608.613C52.5839 621.865 52.8681 635.118 53.1826 648.369C65.3927 648.068 77.6034 647.767 89.8135 647.466C89.4726 634.349 89.1676 621.23 88.8926 608.11C76.7033 608.278 64.5135 608.445 52.3242 608.613ZM97.0596 607.998C97.3347 621.087 97.6404 634.176 97.9814 647.263C112.746 646.899 127.511 646.536 142.275 646.172C142.233 633.24 142.187 620.309 142.144 607.378C127.116 607.584 112.087 607.791 97.0596 607.998ZM150.291 607.265C150.341 620.167 150.392 633.07 150.443 645.971C167.566 645.551 184.689 645.135 201.812 644.721C201.692 632.001 201.567 619.281 201.438 606.561C184.389 606.796 167.34 607.031 150.291 607.265ZM209.594 606.449C209.723 619.14 209.848 631.832 209.968 644.524C223.873 644.188 237.779 643.854 251.684 643.515C251.482 630.97 251.281 618.423 251.079 605.878C237.251 606.068 223.422 606.259 209.594 606.449ZM284.644 605.417C276.175 605.533 267.706 605.65 259.237 605.766C259.439 618.283 259.639 630.799 259.84 643.315C271.066 643.041 282.292 642.763 293.518 642.483C293.203 630.088 292.918 617.697 292.654 605.305C289.984 605.342 287.314 605.38 284.644 605.417ZM300.832 605.193C301.093 617.556 301.378 629.918 301.69 642.279C313.914 641.972 326.137 641.659 338.359 641.341C338.018 629.125 337.711 616.907 337.432 604.688C325.232 604.856 313.032 605.025 300.832 605.193ZM345.602 604.576C345.881 616.76 346.186 628.944 346.527 641.127C350.595 641.02 354.662 640.915 358.729 640.806C368.982 640.532 379.236 640.239 389.488 639.921C389.45 627.938 389.412 615.955 389.373 603.972C374.783 604.173 360.192 604.375 345.602 604.576ZM26.6982 574.481C26.9352 583.253 27.1631 592.027 27.3789 600.8C32.9162 600.724 38.4539 600.648 43.9912 600.572C43.8246 591.78 43.6676 582.988 43.5205 574.195C37.9133 574.291 32.3055 574.386 26.6982 574.481ZM51.7012 574.052C51.8473 582.855 52.0021 591.657 52.168 600.46C64.3531 600.292 76.5385 600.125 88.7236 599.957C88.546 591.11 88.3829 582.262 88.2275 573.414C76.0524 573.629 63.8766 573.842 51.7012 574.052ZM98.9619 573.224C98.1056 573.24 97.2489 573.254 96.3926 573.269C96.4111 574.328 96.4294 575.387 96.4482 576.445C96.5873 584.244 96.7347 592.045 96.8916 599.844C98.4139 599.823 99.9367 599.803 101.459 599.782C115.011 599.595 128.564 599.408 142.116 599.221C142.086 590.296 142.056 581.37 142.025 572.445C127.671 572.708 113.317 572.969 98.9619 573.224ZM201.067 571.339C184.1 571.664 167.133 571.983 150.165 572.296C150.17 573.836 150.175 575.376 150.181 576.917C150.205 584.314 150.231 591.712 150.259 599.109C167.29 598.875 184.322 598.64 201.354 598.406C201.26 589.384 201.165 580.361 201.067 571.339ZM209.223 571.182C209.321 580.219 209.416 589.256 209.51 598.294C223.322 598.103 237.136 597.914 250.948 597.723C250.802 588.606 250.655 579.488 250.509 570.371C236.747 570.646 222.985 570.917 209.223 571.182ZM258.666 570.208C258.666 570.222 258.667 570.237 258.667 570.252C258.814 579.371 258.96 588.491 259.106 597.611C270.232 597.458 281.357 597.304 292.482 597.151C292.294 587.945 292.12 578.738 291.955 569.53C280.859 569.76 269.762 569.985 258.666 570.208ZM320.372 568.935C313.627 569.078 306.882 569.219 300.137 569.359C300.301 578.586 300.475 587.812 300.662 597.039C312.858 596.871 325.055 596.703 337.251 596.535C337.048 587.219 336.857 577.903 336.682 568.586C331.245 568.702 325.808 568.82 320.372 568.935ZM389.249 567.431C374.449 567.765 359.648 568.091 344.848 568.411C345.024 577.747 345.214 587.085 345.419 596.422C360.061 596.22 374.704 596.019 389.346 595.817C389.314 586.355 389.281 576.893 389.249 567.431ZM25.7246 540.081C25.8723 545.132 26.021 550.183 26.165 555.234C26.2706 558.932 26.3742 562.63 26.4766 566.328C32.1132 566.232 37.7501 566.136 43.3867 566.039C43.2459 557.293 43.1134 548.547 42.9883 539.8C37.2339 539.894 31.479 539.987 25.7246 540.081ZM87.6699 539.094C75.5013 539.28 63.3325 539.47 51.1641 539.667C51.2936 548.411 51.428 557.155 51.5684 565.898C63.7407 565.688 75.9136 565.476 88.0859 565.26C87.9386 556.539 87.8018 547.817 87.6699 539.094ZM141.908 538.328C126.551 538.523 111.194 538.741 95.8379 538.97C95.9695 547.686 96.105 556.401 96.252 565.116C106.358 564.936 116.465 564.756 126.571 564.573C131.713 564.48 136.856 564.385 141.998 564.291C141.968 555.637 141.938 546.982 141.908 538.328ZM200.693 537.7C183.812 537.84 166.93 538.02 150.049 538.226C150.078 546.864 150.108 555.503 150.137 564.141C167.084 563.829 184.031 563.512 200.979 563.188C200.894 555.524 200.809 547.859 200.723 540.195C200.713 539.363 200.703 538.531 200.693 537.7ZM249.979 537.41C236.269 537.455 222.559 537.534 208.851 537.637C208.947 546.103 209.042 554.568 209.135 563.033C222.882 562.768 236.63 562.497 250.378 562.223C250.245 553.952 250.111 545.681 249.979 537.41ZM291.419 537.378C280.326 537.357 269.232 537.362 258.139 537.388C258.271 545.613 258.403 553.837 258.535 562.061C269.627 561.839 280.719 561.613 291.811 561.384C291.673 553.384 291.542 545.381 291.419 537.378ZM299.814 550.479C299.873 554.057 299.932 557.636 299.993 561.214C312.172 560.96 324.352 560.703 336.531 560.441C336.393 552.828 336.263 545.214 336.14 537.6C332.783 537.572 329.425 537.547 326.068 537.524C317.249 537.464 308.429 537.423 299.609 537.397C299.677 541.758 299.744 546.119 299.814 550.479ZM344.311 537.674C344.417 544.207 344.527 550.741 344.644 557.273C344.661 558.271 344.68 559.269 344.698 560.266C344.941 560.261 345.184 560.257 345.427 560.252C360.025 559.937 374.624 559.614 389.222 559.285C389.198 552.282 389.174 545.279 389.15 538.276C374.205 538.016 359.257 537.819 344.311 537.674ZM24.7559 507.7C25.0035 515.778 25.2481 523.856 25.4873 531.934C31.2827 531.839 37.0786 531.745 42.874 531.651C42.7626 523.586 42.6587 515.52 42.5576 507.455L24.7559 507.7ZM50.707 507.343C50.8156 515.401 50.9284 523.46 51.0449 531.517C63.2127 531.321 75.381 531.131 87.5488 530.945C87.4309 522.91 87.3179 514.875 87.208 506.841L50.707 507.343ZM95.376 506.728C95.4857 514.759 95.5971 522.79 95.7148 530.821C111.103 530.591 126.492 530.372 141.88 530.176C141.852 522.148 141.824 514.118 141.796 506.09L95.376 506.728ZM366.295 503.001L343.791 503.31C343.916 512.052 344.045 520.793 344.183 529.534C359.164 529.679 374.144 529.875 389.123 530.135C389.092 520.986 389.061 511.836 389.029 502.687C381.451 502.792 373.873 502.896 366.295 503.001ZM149.939 505.977C149.966 514.01 149.994 522.043 150.021 530.075C150.553 530.068 151.085 530.062 151.617 530.055C167.943 529.857 184.271 529.686 200.599 529.55C200.505 521.462 200.41 513.373 200.313 505.284L149.939 505.977ZM208.472 505.172C208.568 513.277 208.663 521.382 208.757 529.487C222.453 529.384 236.15 529.307 249.848 529.262C249.716 521.044 249.583 512.826 249.451 504.608L208.472 505.172ZM299.11 503.924C299.229 512.367 299.353 520.81 299.481 529.252C311.659 529.288 323.836 529.356 336.013 529.459C335.876 520.78 335.747 512.101 335.623 503.423L299.11 503.924ZM257.609 504.496C257.742 512.744 257.875 520.993 258.008 529.241C269.103 529.215 280.199 529.21 291.295 529.231C291.17 520.836 291.053 512.438 290.941 504.037L257.609 504.496ZM23.6699 473.067C23.952 481.894 24.2295 490.721 24.5029 499.548C30.4868 499.466 36.4712 499.384 42.4551 499.301C42.3476 490.456 42.2451 481.61 42.1465 472.764C35.9878 472.866 29.8286 472.967 23.6699 473.067ZM50.2607 472.629C50.3691 481.482 50.4812 490.336 50.5977 499.189C62.7639 499.022 74.9305 498.854 87.0967 498.686C86.9772 489.796 86.86 480.905 86.7441 472.014C74.5832 472.221 62.4218 472.426 50.2607 472.629ZM94.9121 471.876C95.0281 480.775 95.1461 489.675 95.2656 498.574C110.766 498.36 126.267 498.148 141.768 497.934C141.736 488.977 141.705 480.019 141.674 471.062C126.087 471.337 110.499 471.609 94.9121 471.876ZM156.139 470.807C154.033 470.845 151.927 470.881 149.821 470.919C149.851 479.886 149.882 488.854 149.912 497.822C160.978 497.669 172.045 497.518 183.111 497.366C188.813 497.287 194.514 497.208 200.216 497.13C200.107 488.092 199.997 479.053 199.884 470.015C185.302 470.283 170.721 470.548 156.139 470.807ZM208.041 469.866C208.154 478.916 208.265 487.967 208.374 497.017C222.023 496.829 235.672 496.642 249.32 496.454C249.174 487.336 249.027 478.218 248.881 469.1C235.268 469.359 221.654 469.615 208.041 469.866ZM257.038 468.944C257.185 478.076 257.332 487.209 257.479 496.341C268.598 496.188 279.717 496.035 290.836 495.882C290.717 486.691 290.605 477.496 290.498 468.296C279.345 468.515 268.191 468.73 257.038 468.944ZM298.632 468.134C298.749 477.346 298.871 486.558 298.998 495.769C311.167 495.602 323.337 495.435 335.506 495.267C335.376 485.978 335.252 476.688 335.13 467.399C322.964 467.648 310.798 467.893 298.632 468.134ZM377.549 466.518C366.132 466.76 354.714 466.997 343.297 467.232C343.42 476.539 343.545 485.847 343.675 495.154C358.783 494.946 373.892 494.738 389.001 494.53C388.968 485.112 388.935 475.693 388.902 466.275C385.118 466.356 381.333 466.438 377.549 466.518ZM22.209 428.349C22.6149 440.537 23.0173 452.725 23.4102 464.913C29.6258 464.811 35.842 464.711 42.0576 464.608C41.924 452.363 41.7977 440.117 41.6729 427.872C35.185 428.031 28.6968 428.19 22.209 428.349ZM49.7402 427.673C49.8749 439.94 50.0161 452.206 50.1631 464.472C62.3208 464.27 74.479 464.066 86.6367 463.859C86.4758 451.499 86.314 439.138 86.1455 426.779C74.0106 427.077 61.8751 427.376 49.7402 427.673ZM94.3135 426.578C94.4822 438.958 94.6445 451.34 94.8057 463.72C110.419 463.453 126.032 463.182 141.646 462.907C141.602 450.411 141.558 437.915 141.515 425.419C125.781 425.805 110.047 426.192 94.3135 426.578ZM149.668 425.217C149.71 437.733 149.752 450.248 149.794 462.763C161.112 462.563 172.43 462.361 183.747 462.156C189.092 462.059 194.437 461.96 199.781 461.862C199.622 449.24 199.459 436.617 199.293 423.995C182.751 424.402 166.21 424.811 149.668 425.217ZM207.448 423.795C207.615 436.434 207.779 449.074 207.938 461.714C221.542 461.463 235.146 461.207 248.75 460.949C248.546 448.23 248.342 435.511 248.138 422.792C234.575 423.127 221.011 423.46 207.448 423.795ZM256.293 422.59C256.498 435.324 256.703 448.059 256.907 460.794C268.072 460.58 279.237 460.365 290.402 460.146C290.257 447.361 290.124 434.564 289.991 421.754C278.759 422.033 267.526 422.311 256.293 422.59ZM298.073 421.552C298.218 434.364 298.369 447.175 298.528 459.986C310.693 459.746 322.858 459.501 335.022 459.253C334.854 446.383 334.686 433.513 334.515 420.644C322.368 420.948 310.22 421.25 298.073 421.552ZM388.738 419.243C377.342 419.562 365.945 419.859 354.551 420.144C350.595 420.243 346.638 420.341 342.683 420.44C342.854 433.322 343.022 446.205 343.19 459.087C358.418 458.774 373.646 458.454 388.874 458.128C388.829 445.166 388.784 432.204 388.738 419.243ZM20.7031 383.788C21.1192 395.924 21.5317 408.06 21.9385 420.196C28.4884 420.034 35.0389 419.873 41.5889 419.712C41.4666 407.625 41.3424 395.539 41.2197 383.454C34.381 383.565 27.5418 383.676 20.7031 383.788ZM85.5039 382.753C73.4271 382.938 61.3501 383.128 49.2734 383.323C49.3954 395.386 49.5222 407.449 49.6523 419.512C61.7789 419.213 73.9057 418.914 86.0322 418.615C85.8802 407.683 85.7238 396.751 85.5537 385.821C85.5378 384.798 85.52 383.775 85.5039 382.753ZM141.363 381.96C125.467 382.162 109.57 382.389 93.6738 382.628C93.8617 394.556 94.0333 406.485 94.1992 418.414C109.962 418.025 125.724 417.636 141.486 417.247C141.446 405.484 141.403 393.722 141.363 381.96ZM198.718 381.344C182.319 381.483 165.92 381.658 149.521 381.858C149.561 393.587 149.6 405.317 149.64 417.046C154.39 416.928 159.141 416.812 163.892 416.695C175.656 416.405 187.422 416.12 199.187 415.835C199.034 404.338 198.877 392.841 198.718 381.344ZM247.468 381.047C233.937 381.095 220.405 381.174 206.874 381.279C207.032 392.731 207.188 404.184 207.341 415.636C220.896 415.308 234.452 414.979 248.007 414.651C247.827 403.45 247.647 392.248 247.468 381.047ZM289.574 381.001C278.258 380.982 266.942 380.991 255.626 381.021C255.805 392.165 255.984 403.31 256.163 414.454C267.411 414.181 278.659 413.908 289.907 413.632C289.796 402.766 289.683 391.889 289.574 381.001ZM297.98 413.433C310.123 413.133 322.265 412.828 334.407 412.519C334.266 402.083 334.119 391.646 333.965 381.211C331.29 381.189 328.614 381.169 325.938 381.151C316.504 381.087 307.069 381.046 297.635 381.02C297.747 391.824 297.861 402.629 297.98 413.433ZM342.138 381.281C342.29 391.624 342.434 401.968 342.573 412.311C354.504 412.006 366.435 411.697 378.365 411.379C381.813 411.286 385.262 411.189 388.71 411.092C388.676 401.36 388.642 391.628 388.608 381.896C373.119 381.628 357.628 381.425 342.138 381.281ZM19.4824 348.545C19.7968 357.577 20.1128 366.61 20.4238 375.643C27.328 375.53 34.2326 375.417 41.1367 375.304C41.1022 371.94 41.0701 368.575 41.0352 365.211L40.8574 348.144C33.7325 348.275 26.6073 348.411 19.4824 348.545ZM84.8994 347.356C72.9081 347.565 60.9169 347.779 48.9258 347.998C49.0135 357.056 49.1029 366.115 49.1934 375.173C61.2534 374.978 73.3139 374.788 85.374 374.603C85.2258 365.521 85.0681 356.438 84.8994 347.356ZM141.243 346.432C125.185 346.677 109.126 346.938 93.0674 347.214C93.2361 356.302 93.3937 365.39 93.542 374.479C109.473 374.239 125.404 374.011 141.335 373.808C141.332 372.882 141.329 371.955 141.326 371.029C141.299 362.83 141.271 354.631 141.243 346.432ZM341.56 344.687C341.722 354.171 341.871 363.656 342.015 373.141C357.537 373.287 373.06 373.486 388.58 373.755C388.547 364.102 388.513 354.448 388.479 344.796C379.415 344.75 370.349 344.718 361.284 344.702C354.709 344.69 348.134 344.685 341.56 344.687ZM198.216 345.647C181.945 345.845 165.674 346.067 149.403 346.308C149.434 355.441 149.464 364.574 149.494 373.707C150.158 373.699 150.822 373.69 151.486 373.682C167.191 373.492 182.898 373.327 198.605 373.194C198.478 364.012 198.348 354.829 198.216 345.647ZM246.89 345.135C233.383 345.254 219.877 345.393 206.371 345.55C206.475 352.805 206.579 360.06 206.681 367.315C206.708 369.253 206.734 371.191 206.761 373.129C220.286 373.024 233.811 372.946 247.337 372.898C247.327 372.265 247.317 371.631 247.307 370.998C247.168 362.377 247.028 353.756 246.89 345.135ZM333.39 344.692C321.35 344.705 309.31 344.741 297.271 344.796C297.363 354.155 297.454 363.515 297.55 372.875C309.648 372.908 321.746 372.972 333.844 373.07C333.811 370.93 333.781 368.79 333.748 366.65C333.634 359.331 333.515 352.011 333.39 344.692ZM289.209 344.837C277.822 344.897 266.435 344.972 255.049 345.065C255.198 354.335 255.346 363.604 255.495 372.874C266.827 372.844 278.16 372.836 289.492 372.855C289.403 363.922 289.314 354.981 289.222 346.03L289.209 344.837ZM18.5049 320.504C18.7363 327.106 18.9659 333.708 19.1963 340.31C26.3882 340.181 33.5805 340.052 40.7725 339.925L40.5654 319.962C33.212 320.142 25.8583 320.323 18.5049 320.504ZM48.6543 319.763C48.7177 326.438 48.7806 333.112 48.8447 339.787C60.811 339.579 72.7778 339.375 84.7441 339.177C84.6132 332.414 84.4758 325.65 84.3301 318.886C72.4383 319.178 60.546 319.472 48.6543 319.763ZM92.498 318.686C92.6442 325.471 92.7818 332.256 92.9131 339.042C109.013 338.779 125.114 338.529 141.215 338.29C141.192 331.357 141.169 324.424 141.146 317.491C124.93 317.889 108.714 318.288 92.498 318.686ZM149.307 317.291C149.33 324.25 149.353 331.209 149.376 338.169C157.601 338.049 165.827 337.932 174.053 337.819C182.068 337.709 190.083 337.605 198.099 337.507C197.996 330.37 197.892 323.232 197.787 316.095C181.627 316.493 165.467 316.894 149.307 317.291ZM205.938 315.894C206.044 323.066 206.149 330.237 206.253 337.409C219.754 337.25 233.257 337.111 246.759 336.991C246.64 329.626 246.522 322.262 246.403 314.897C232.915 315.231 219.426 315.562 205.938 315.894ZM254.562 314.696C254.681 322.104 254.799 329.512 254.918 336.92C266.32 336.826 277.722 336.748 289.124 336.687L288.888 313.845C277.446 314.129 266.004 314.413 254.562 314.696ZM388.365 311.341C380.069 311.565 371.773 311.78 363.479 311.988C355.974 312.176 348.468 312.362 340.964 312.549C341.125 320.545 341.275 328.542 341.417 336.539C357.095 336.535 372.774 336.569 388.451 336.648C388.44 333.503 388.43 330.357 388.419 327.213C388.401 321.922 388.383 316.632 388.365 311.341ZM296.966 313.645C297.039 321.312 297.116 328.98 297.19 336.647C309.209 336.592 321.228 336.556 333.246 336.543C333.105 328.613 332.956 320.683 332.797 312.754C320.853 313.051 308.909 313.349 296.966 313.645ZM16.7998 271.911C17.2734 285.391 17.7457 298.871 18.2188 312.351C25.6392 312.168 33.0601 311.985 40.4805 311.802L40.0645 271.59C32.3097 271.697 24.5545 271.804 16.7998 271.911ZM48.1943 271.479C48.3221 284.853 48.4503 298.228 48.5771 311.603C60.4351 311.311 72.2935 311.018 84.1514 310.725C83.8533 297.481 83.5216 284.239 83.1514 270.998C71.4992 271.158 59.8465 271.319 48.1943 271.479ZM91.3203 270.885C91.6898 284.097 92.0199 297.31 92.3174 310.524C108.584 310.123 124.852 309.721 141.118 309.32C141.074 296.281 141.03 283.241 140.986 270.202C124.431 270.43 107.876 270.657 91.3203 270.885ZM149.148 270.09C149.192 283.099 149.236 296.109 149.279 309.119C157.126 308.925 164.973 308.732 172.819 308.539C181.101 308.335 189.384 308.135 197.666 307.933C197.475 295.099 197.281 282.264 197.082 269.429C181.104 269.649 165.126 269.87 149.148 270.09ZM205.23 269.317C205.43 282.123 205.625 294.929 205.816 307.735C219.302 307.408 232.787 307.078 246.272 306.753C246.069 294.089 245.866 281.424 245.662 268.76C232.185 268.946 218.708 269.132 205.23 269.317ZM253.822 268.648C254.025 281.284 254.228 293.92 254.431 306.555C265.888 306.278 277.346 306 288.803 305.72L288.414 268.173C276.884 268.331 265.353 268.49 253.822 268.648ZM313.207 267.832C307.649 267.908 302.09 267.985 296.531 268.061C296.65 280.548 296.77 293.035 296.889 305.522C308.802 305.23 320.716 304.935 332.629 304.635C332.37 292.281 332.085 279.928 331.769 267.576C325.582 267.661 319.394 267.746 313.207 267.832ZM339.938 267.463C340.255 279.783 340.537 292.105 340.796 304.427C356.295 304.034 371.795 303.636 387.293 303.222C387.641 303.213 387.989 303.202 388.337 303.193C388.296 291.061 388.256 278.929 388.215 266.798C372.123 267.019 356.03 267.241 339.938 267.463ZM15.5957 237.562C15.9007 246.294 16.2072 255.027 16.5137 263.759C24.3355 263.652 32.1577 263.544 39.9795 263.436L39.707 237.16C31.6701 237.295 23.6327 237.429 15.5957 237.562ZM47.8594 237.021C47.9458 245.789 48.032 254.557 48.1162 263.325C59.7167 263.165 71.3175 263.005 82.918 262.845C82.6606 254.041 82.3856 245.238 82.0889 236.435C70.6792 236.633 59.2692 236.828 47.8594 237.021ZM127.526 235.639C115.103 235.861 102.679 236.077 90.2549 236.294C90.5522 245.106 90.8301 253.919 91.0879 262.733C104.066 262.554 117.045 262.377 130.023 262.198C133.668 262.148 137.314 262.097 140.959 262.047C140.929 253.164 140.899 244.282 140.869 235.399C136.422 235.479 131.974 235.56 127.526 235.639ZM196.526 234.38C180.695 234.675 164.863 234.967 149.031 235.253C149.061 244.146 149.091 253.041 149.121 261.934C165.065 261.715 181.01 261.496 196.954 261.276C196.814 252.311 196.671 243.345 196.526 234.38ZM204.675 234.227C204.82 243.206 204.962 252.185 205.103 261.164C218.579 260.978 232.055 260.793 245.531 260.607C245.386 251.556 245.239 242.505 245.094 233.455C231.621 233.716 218.148 233.974 204.675 234.227ZM253.254 233.296C253.399 242.362 253.546 251.428 253.691 260.495C265.237 260.336 276.783 260.176 288.329 260.017L288.045 232.606C276.448 232.839 264.851 233.069 253.254 233.296ZM296.191 232.442C296.28 241.596 296.366 250.751 296.453 259.906C308.154 259.745 319.855 259.584 331.556 259.423C331.308 250.191 331.04 240.96 330.752 231.73C319.232 231.971 307.711 232.209 296.191 232.442ZM348.937 231.349C345.598 231.42 342.258 231.488 338.919 231.558C339.208 240.808 339.475 250.059 339.724 259.31C355.878 259.088 372.033 258.865 388.188 258.642L388.093 230.505C375.041 230.79 361.988 231.073 348.937 231.349ZM14.4023 203.144C14.7044 211.899 15.0084 220.653 15.3135 229.408C23.4163 229.274 31.5193 229.14 39.6221 229.004L39.3496 202.739C31.034 202.875 22.7179 203.01 14.4023 203.144ZM47.5137 202.607C47.5163 202.86 47.5198 203.112 47.5225 203.365C47.6105 211.865 47.6927 220.365 47.7773 228.865C59.1203 228.673 70.4637 228.48 81.8066 228.284C81.6435 223.649 81.4772 219.013 81.3018 214.379C81.1461 210.274 80.9833 206.169 80.8174 202.065C69.7162 202.244 58.6147 202.425 47.5137 202.607ZM140.754 201.148C123.499 201.395 106.243 201.659 88.9883 201.935C89.3408 210.669 89.6666 219.405 89.9736 228.142C106.93 227.848 123.886 227.548 140.842 227.244C140.813 218.545 140.783 209.847 140.754 201.148ZM195.971 200.44C180.286 200.613 164.601 200.814 148.916 201.032C148.924 203.366 148.932 205.701 148.94 208.035C148.962 214.389 148.982 220.743 149.004 227.096C151.047 227.059 153.091 227.024 155.135 226.987C168.888 226.738 182.642 226.484 196.396 226.227C196.256 217.632 196.114 209.036 195.971 200.44ZM244.556 200.001C231.077 200.093 217.598 200.212 204.119 200.352C204.262 208.926 204.403 217.501 204.543 226.076C218.016 225.823 231.49 225.566 244.963 225.305C244.827 216.871 244.691 208.435 244.556 200.001ZM287.704 199.801C276.042 199.828 264.38 199.877 252.718 199.948C252.796 204.826 252.876 209.705 252.954 214.583C253.011 218.104 253.067 221.625 253.123 225.146C264.735 224.92 276.348 224.691 287.96 224.458L287.704 199.801ZM295.865 199.787C295.948 207.955 296.03 216.125 296.11 224.294C307.571 224.062 319.032 223.826 330.492 223.588C330.234 215.663 329.958 207.739 329.665 199.816C318.398 199.78 307.132 199.773 295.865 199.787ZM337.842 199.849C338.006 204.295 338.166 208.741 338.318 213.187C338.436 216.597 338.55 220.008 338.661 223.418C350.438 223.17 362.215 222.921 373.991 222.666C378.682 222.564 383.374 222.461 388.065 222.358C388.041 214.99 388.015 207.622 387.99 200.255C376.871 200.119 365.752 200.015 354.633 199.94C349.036 199.902 343.439 199.873 337.842 199.849ZM13.2852 170.665C13.5194 177.5 13.7539 184.336 13.9883 191.172C14.032 192.447 14.0763 193.724 14.1201 195C22.4999 194.865 30.8815 194.729 39.2646 194.591L39.0127 170.311C30.437 170.429 21.8609 170.547 13.2852 170.665ZM47.1768 170.199C47.2605 178.285 47.346 186.372 47.4297 194.459C58.443 194.278 69.4603 194.096 80.4814 193.919C80.1419 185.863 79.7803 177.808 79.3975 169.756C68.6574 169.904 57.9169 170.051 47.1768 170.199ZM87.5703 169.643C87.9528 177.69 88.3135 185.739 88.6523 193.789C105.997 193.511 123.354 193.245 140.726 192.997L140.645 168.913C122.953 169.156 105.262 169.399 87.5703 169.643ZM148.807 168.8C148.834 176.827 148.861 184.855 148.889 192.882C159.314 192.737 169.745 192.597 180.182 192.47C185.398 192.407 190.616 192.347 195.833 192.29C195.697 184.246 195.559 176.202 195.42 168.159C179.882 168.373 164.344 168.586 148.807 168.8ZM203.57 168.047C203.622 171.057 203.675 174.068 203.727 177.078C203.813 182.119 203.896 187.161 203.981 192.202C217.462 192.062 230.943 191.943 244.425 191.85C244.294 183.73 244.164 175.61 244.033 167.49C230.546 167.675 217.058 167.861 203.57 168.047ZM336.486 166.217C336.859 174.711 337.206 183.207 337.533 191.704C354.344 191.777 371.154 191.911 387.963 192.116C387.933 183.248 387.903 174.379 387.873 165.51C370.744 165.745 353.615 165.982 336.486 166.217ZM252.193 167.378C252.324 175.518 252.456 183.658 252.587 191.798C264.264 191.728 275.942 191.679 287.619 191.654L287.362 166.893C275.639 167.054 263.916 167.216 252.193 167.378ZM295.528 166.781C295.588 172.582 295.65 178.383 295.71 184.184C295.736 186.669 295.759 189.155 295.784 191.64C306.975 191.627 318.167 191.635 329.357 191.671C329.031 183.223 328.684 174.775 328.312 166.33C317.385 166.48 306.456 166.631 295.528 166.781ZM12.1016 136.129C12.4028 144.924 12.7045 153.719 13.0059 162.514C21.6463 162.395 30.2872 162.276 38.9277 162.157L38.6533 135.704C29.8028 135.847 20.952 135.988 12.1016 136.129ZM46.8174 135.571C46.9088 144.395 47.0014 153.22 47.0928 162.045C57.7297 161.898 68.367 161.752 79.0039 161.605C78.5662 152.756 78.0974 143.908 77.6016 135.064C67.3403 135.235 57.0786 135.404 46.8174 135.571ZM140.526 133.998C122.276 134.314 104.026 134.624 85.7754 134.928C85.7992 135.356 85.8237 135.786 85.8477 136.215C86.3179 144.638 86.7589 153.065 87.1758 161.493C104.989 161.247 122.804 161.003 140.617 160.757C140.587 151.838 140.556 142.918 140.526 133.998ZM184.702 133.222C172.698 133.436 160.693 133.647 148.688 133.856C148.718 142.786 148.749 151.716 148.779 160.645C164.279 160.432 179.779 160.219 195.278 160.006C195.248 158.29 195.22 156.574 195.189 154.858C195.062 147.586 194.931 140.313 194.801 133.041C191.435 133.101 188.068 133.162 184.702 133.222ZM202.951 132.895C203.113 141.894 203.272 150.894 203.429 159.893C206.177 159.855 208.926 159.818 211.675 159.78C222.417 159.632 233.159 159.484 243.901 159.336C243.756 150.276 243.61 141.215 243.464 132.155C229.96 132.405 216.455 132.652 202.951 132.895ZM251.624 132.003C251.77 141.076 251.917 150.15 252.062 159.223C263.801 159.062 275.539 158.901 287.277 158.739L286.993 131.334C275.204 131.56 263.414 131.783 251.624 132.003ZM295.157 131.177C295.252 140.327 295.349 149.476 295.443 158.626C306.278 158.476 317.112 158.328 327.946 158.178C327.525 148.971 327.076 139.765 326.594 130.562C316.115 130.77 305.636 130.975 295.157 131.177ZM387.751 129.318C370.089 129.687 352.426 130.047 334.764 130.399C335.247 139.619 335.698 148.841 336.12 158.066C353.362 157.829 370.604 157.592 387.846 157.354C387.814 148.009 387.782 138.663 387.751 129.318ZM10.5811 91.7526C10.9944 103.827 11.4088 115.902 11.8223 127.976C20.7378 127.835 29.6538 127.692 38.5693 127.548L38.1914 91.0749C28.9881 91.3008 19.7843 91.5265 10.5811 91.7526ZM46.3525 90.8737C46.479 103.053 46.6062 115.234 46.7324 127.414C56.868 127.249 67.0041 127.083 77.1396 126.915C76.4313 114.653 75.6813 102.368 74.4717 90.1833C65.0988 90.4132 55.7254 90.6436 46.3525 90.8737ZM82.7363 89.9801C83.8889 101.985 84.6199 114.203 85.3223 126.778C103.714 126.471 122.107 126.16 140.499 125.841C140.457 113.416 140.416 100.99 140.374 88.5641C121.162 89.0358 101.949 89.5088 82.7363 89.9801ZM148.535 88.3639C148.577 100.809 148.619 113.255 148.661 125.7C163.992 125.433 179.323 125.163 194.653 124.888C194.426 112.341 194.193 99.793 193.954 87.2458C178.814 87.6182 163.675 87.9922 148.535 88.3639ZM202.101 87.0456C202.341 99.6106 202.575 112.176 202.804 124.742C205.973 124.685 209.142 124.628 212.312 124.571C222.652 124.384 232.993 124.194 243.333 124.003L242.723 86.0446C229.182 86.3787 215.641 86.7123 202.101 87.0456ZM250.882 85.8434C251.086 98.5122 251.29 111.181 251.493 123.85C263.298 123.63 275.103 123.408 286.908 123.182L286.513 84.9635C274.636 85.2576 262.759 85.5502 250.882 85.8434ZM294.675 84.7614C294.807 97.5163 294.941 110.272 295.073 123.027C305.435 122.828 315.797 122.624 326.159 122.42C325.947 118.512 325.73 114.605 325.506 110.699C324.995 101.814 324.48 92.9115 323.802 84.0387C314.093 84.2801 304.384 84.5208 294.675 84.7614ZM383.114 82.5602C366.081 82.9867 349.048 83.4108 332.015 83.8346C332.842 94.9016 333.425 106.006 334.042 117.043C334.139 118.781 334.234 120.519 334.329 122.257C352.127 121.904 369.926 121.541 387.724 121.171C387.68 108.263 387.637 95.3541 387.594 82.446C386.101 82.4837 384.607 82.5228 383.114 82.5602ZM9.04297 46.8561C9.46242 59.105 9.88242 71.3543 10.3018 83.6032C19.5699 83.3747 28.8384 83.1462 38.1064 82.9176L37.7285 46.3903C28.1668 46.5467 18.6046 46.7032 9.04297 46.8561ZM45.8887 46.2575C46.0153 58.4101 46.1413 70.5634 46.2676 82.7165C55.3745 82.4919 64.482 82.2672 73.5889 82.0426C72.2335 70.5932 70.3865 59.2575 67.6895 48.1422L67.7139 48.153C67.5171 47.3435 67.4617 46.591 67.5205 45.9059C60.31 46.0234 53.0991 46.1394 45.8887 46.2575ZM140.227 44.7809C118.716 45.0886 97.2047 45.4246 75.6943 45.7731C78.5664 57.708 80.489 69.6789 81.8809 81.8376C101.369 81.3569 120.858 80.877 140.346 80.3961C140.306 68.5245 140.267 56.6526 140.227 44.7809ZM193.105 44.0973C178.199 44.2644 163.293 44.4573 148.387 44.6647C148.427 56.5082 148.467 68.3519 148.507 80.195C163.156 79.8335 177.806 79.4726 192.455 79.111C192.902 79.1 193.35 79.0888 193.798 79.0778C193.573 67.4175 193.342 55.757 193.105 44.0973ZM242.041 43.6442C228.444 43.7409 214.847 43.8651 201.251 44.0094C201.488 55.6323 201.719 67.256 201.944 78.8795C215.493 78.5475 229.043 78.2169 242.592 77.8893C242.408 66.4745 242.225 55.0592 242.041 43.6442ZM286.082 43.4323C274.122 43.4612 262.162 43.5149 250.202 43.5905C250.386 54.9574 250.568 66.3248 250.751 77.692C262.643 77.4048 274.536 77.1161 286.428 76.8278L286.082 43.4323ZM294.245 43.4157C294.36 54.487 294.476 65.5589 294.591 76.6305C304.104 76.3993 313.618 76.1667 323.131 75.9323C322.152 64.9971 320.848 54.1292 318.918 43.4186C310.694 43.4045 302.469 43.4038 294.245 43.4157ZM327.33 43.4372C329.156 54.0743 330.411 64.8714 331.359 75.7292C350.096 75.2651 368.832 74.7899 387.566 74.3014C387.532 64.1599 387.498 54.0181 387.464 43.8766C376.477 43.7438 365.489 43.6411 354.502 43.567C345.445 43.5055 336.387 43.463 327.33 43.4372ZM7.84082 11.7145C8.14918 20.7131 8.45646 29.712 8.76465 38.7106C18.3887 38.5566 28.0151 38.4003 37.6436 38.2428L37.3643 11.1608C27.5233 11.3461 17.6817 11.5281 7.84082 11.7145ZM140.108 9.32096C108.579 9.84064 77.0512 10.4163 45.5234 11.0075C45.6179 20.0414 45.7105 29.0758 45.8047 38.11C77.2345 37.5951 108.693 37.0803 140.199 36.6295C140.169 27.5268 140.139 18.4237 140.108 9.32096ZM192.361 8.51529C177.664 8.72295 162.966 8.94761 148.269 9.18521C148.3 18.2946 148.329 27.4042 148.359 36.5133C158.917 36.3663 169.481 36.2255 180.051 36.0973C184.347 36.0452 188.644 35.9952 192.94 35.9469C192.752 26.8029 192.558 17.6588 192.361 8.51529ZM285.711 7.46451C257.308 7.69105 228.905 8.01315 200.504 8.40201C200.541 10.1343 200.581 11.8669 200.617 13.5993C200.776 21.0187 200.932 28.4392 201.085 35.859C214.692 35.7145 228.301 35.5902 241.91 35.4938C241.791 28.0568 241.672 20.6194 241.553 13.1823C241.439 6.25939 249.599 6.28085 249.714 13.1823C249.834 20.6013 249.952 28.0209 250.071 35.4401C262.046 35.3649 274.022 35.313 285.998 35.2848L285.711 7.46451ZM387.342 7.11392C356.184 7.06525 325.027 7.17398 293.872 7.40201C293.969 16.6905 294.064 25.9794 294.161 35.2682C301.879 35.2576 309.597 35.256 317.314 35.2682C316.865 33.1623 316.391 31.0624 315.884 28.9713L315.908 28.9821C314.301 22.3703 322.184 19.5688 323.775 26.1266C324.513 29.1631 325.189 32.2183 325.811 35.2887C346.353 35.3447 366.896 35.4892 387.437 35.7379C387.404 26.1967 387.374 16.6552 387.342 7.11392Z" fill="#FEB3A5"/>
</g>
<defs>
<clipPath id="clip0_213_72284">
<rect width="400" height="888" fill="white"/>
</clipPath>
</defs>
</svg>
